<?xml version="1.0" standalone="no"?>
<!DOCTYPE svg PUBLIC "-//W3C//DTD SVG 20010904//EN"
 "http://www.w3.org/TR/2001/REC-SVG-20010904/DTD/svg10.dtd">
<svg version="1.0" xmlns="http://www.w3.org/2000/svg"
 width="320.000000pt" height="320.000000pt" viewBox="0 0 320.000000 320.000000"
 preserveAspectRatio="xMidYMid meet">
<metadata>
Created by potrace 1.16, written by Peter Selinger 2001-2019
</metadata>
<g transform="translate(0.000000,320.000000) scale(0.100000,-0.100000)"
fill="#000000" stroke="none">
<path d="M240 3133 c0 -113 -4 -118 -99 -130 -26 -3 -53 0 -67 8 -44 23 -100
-29 -62 -58 29 -22 50 -23 55 -4 11 41 46 31 121 -33 27 -23 31 -99 7 -133
-13 -18 -20 -20 -46 -13 -38 11 -41 4 -44 -103 -1 -45 -5 -161 -10 -257 -4
-96 -6 -207 -5 -247 0 -40 -4 -82 -10 -93 -9 -17 -7 -28 9 -56 12 -19 21 -37
21 -40 0 -2 -25 -4 -55 -4 -54 0 -55 0 -55 -29 0 -27 3 -30 37 -33 21 -2 37
-6 36 -10 -2 -5 -3 -37 -3 -73 0 -37 -4 -65 -10 -65 -5 0 -10 16 -10 35 0 31
-3 35 -25 35 -21 0 -25 -5 -25 -29 0 -23 5 -31 23 -34 l22 -4 -23 -8 c-20 -7
-22 -14 -22 -72 0 -63 1 -65 23 -58 72 24 137 13 137 -23 0 -9 9 -23 20 -30
19 -11 20 -21 18 -100 l-3 -87 -98 -24 -97 -23 0 -300 1 -300 56 5 c31 3 51 2
44 -3 -8 -4 -11 -16 -7 -28 9 -27 57 -33 194 -27 72 4 113 2 117 -5 3 -5 24
-10 46 -10 21 0 39 -4 39 -10 0 -5 -11 -10 -25 -10 -15 0 -40 -7 -58 -17 -32
-16 -79 -21 -107 -9 -8 3 -34 7 -57 10 -23 3 -59 10 -81 17 -22 6 -49 9 -59 5
-16 -7 -16 -9 6 -25 28 -21 20 -27 -59 -37 l-50 -7 0 -293 0 -294 634 0 c419
0 637 3 641 10 4 6 11 52 17 103 5 50 19 117 29 148 10 31 19 70 19 87 0 17 9
55 21 84 17 43 20 67 16 125 -3 40 -1 87 5 105 35 108 76 202 98 226 16 16 25
41 51 142 6 25 16 56 22 70 6 14 10 28 9 31 -1 4 19 12 43 19 33 9 103 11 263
7 129 -4 205 -3 187 3 -75 21 -172 30 -317 28 -86 -2 -155 -2 -153 0 1 2 34
14 71 27 80 28 69 41 -31 33 -58 -5 -64 -4 -75 17 -17 33 -3 51 21 29 17 -16
24 -16 57 -5 20 8 45 20 54 29 16 13 18 13 18 0 0 -13 11 -13 98 -1 110 16
323 22 365 10 15 -4 27 -12 27 -17 0 -5 -6 -7 -12 -5 -7 3 -20 1 -27 -4 -12
-8 -11 -13 10 -30 18 -15 21 -22 13 -31 -8 -8 -14 -9 -18 -1 -14 23 -36 11
-36 -19 0 -16 5 -30 10 -30 6 0 10 4 10 10 0 11 59 44 67 37 3 -3 -8 -14 -24
-24 -44 -28 -55 -41 -40 -46 14 -5 101 19 140 40 16 8 31 13 33 10 5 -5 -107
-92 -118 -92 -3 0 -10 -3 -14 -7 -12 -13 -151 -9 -261 8 -101 14 -151 14 -81
-1 75 -17 293 -86 303 -97 7 -8 5 -9 -10 -4 -37 14 -225 55 -283 61 -55 7 -56
6 -35 -10 36 -25 112 -57 183 -75 70 -18 88 -39 53 -66 -17 -13 -17 -15 0 -28
20 -15 23 -36 5 -36 -7 0 -31 7 -54 16 -31 12 -47 13 -61 5 -15 -9 -15 -10 -2
-11 9 0 22 -7 29 -15 10 -13 9 -15 -9 -15 -25 0 -28 -15 -5 -24 9 -4 14 -9 12
-12 -3 -3 -23 2 -44 12 -38 16 -38 17 -14 23 25 7 25 7 3 13 -13 3 -23 3 -23
-1 0 -11 -72 -40 -105 -42 -17 -1 -49 1 -71 5 -27 5 -44 4 -49 -4 -8 -13 92
-59 149 -69 22 -3 41 -12 44 -19 5 -15 -12 -15 -79 -1 -47 10 -53 9 -72 -10
-15 -14 -22 -35 -23 -68 -1 -35 -6 -49 -18 -51 -28 -6 -17 -20 22 -29 57 -14
48 -37 -18 -44 -30 -4 -73 -14 -95 -22 -22 -9 -48 -16 -58 -17 -33 0 -12 -23
35 -37 91 -26 89 -65 -10 -138 l-67 -51 0 -59 c0 -32 6 -70 13 -84 8 -16 12
-45 9 -73 l-4 -48 853 0 854 0 0 125 0 124 -32 -19 c-18 -10 -58 -44 -88 -75
-37 -37 -62 -55 -80 -55 -14 0 -36 -9 -50 -20 -27 -21 -40 -25 -40 -12 0 4 16
16 36 27 19 10 45 33 56 49 12 17 31 42 44 56 12 14 25 40 29 57 6 30 25 47
25 23 0 -17 30 -11 37 8 4 9 19 29 35 44 26 24 28 32 28 97 0 69 -1 71 -27 76
-16 3 -44 10 -63 15 -19 4 -68 14 -108 21 -87 15 -109 4 -70 -33 28 -26 41
-65 26 -74 -5 -4 -23 -27 -40 -53 l-30 -46 4 116 4 117 -95 31 c-206 68 -333
123 -397 171 -40 30 -87 98 -81 119 3 11 0 22 -6 24 -8 2 -6 13 6 30 20 31 5
37 -26 9 -11 -9 1 11 26 46 25 35 56 71 68 81 l23 18 -33 -5 c-22 -3 -36 -13
-46 -31 -7 -15 -21 -33 -30 -41 -9 -7 1 17 22 54 31 55 50 74 109 114 79 53
191 149 182 157 -3 3 -29 -11 -59 -32 -50 -34 -52 -35 -36 -10 22 33 22 33 -5
41 -21 6 -21 7 -6 16 11 7 25 7 42 -1 20 -10 32 -8 63 7 23 11 65 19 108 20
39 2 97 6 130 10 33 4 124 7 203 7 l142 -1 -1 417 c-1 376 -3 408 -14 334 -12
-77 -39 -143 -58 -143 -5 0 -7 -6 -4 -14 7 -17 -13 -26 -59 -26 -28 0 -34 4
-34 21 0 11 -4 29 -10 39 -14 26 13 50 57 50 l35 0 -5 78 -4 77 -33 5 c-18 3
-38 13 -44 23 -9 15 -6 22 14 38 14 11 37 31 53 44 28 25 71 33 82 15 22 -35
25 22 25 415 l0 425 -700 0 c-584 0 -700 -2 -700 -14 0 -10 -24 -15 -97 -18
-65 -4 -100 -10 -107 -19 -6 -8 -17 -14 -23 -15 -28 -2 -33 -4 -33 -14 0 -13
33 -13 45 -1 6 6 32 3 70 -10 33 -11 78 -22 100 -23 37 -2 40 -5 39 -32 0 -41
-13 -135 -20 -145 -3 -5 -25 -9 -50 -9 -48 0 -48 0 -45 78 2 34 -1 42 -16 43
-30 1 -55 6 -117 23 -33 9 -66 14 -73 11 -8 -2 -28 2 -44 10 -33 18 -82 22
-118 10 -23 -7 -24 -6 -17 36 4 24 9 54 13 67 l5 22 -340 0 -339 0 -6 -82 c-4
-46 -10 -162 -13 -258 -4 -96 -11 -185 -15 -197 -10 -27 -59 -32 -79 -7 -14
16 -16 241 -4 442 l7 102 -142 0 -141 0 0 -67z m1835 30 c-14 -26 -13 -28 8
-35 17 -4 18 -6 4 -7 -15 -1 -16 -3 -5 -15 9 -10 15 -11 21 -2 5 7 11 5 19 -9
11 -19 11 -19 19 0 6 15 8 9 8 -20 1 -30 4 -36 11 -25 8 13 10 13 10 -2 0 -25
-11 -49 -20 -43 -17 10 -90 -7 -90 -21 0 -21 -20 -17 -21 4 -1 16 -2 16 -6 0
-7 -28 -23 -21 -24 10 -3 42 3 177 7 181 1 2 11 -4 20 -13 9 -9 19 -14 23 -10
3 4 0 9 -8 12 -11 4 -11 6 0 13 29 18 38 10 24 -18z m-1872 -548 c-2 -72 -5
-140 -8 -153 l-6 -22 -23 25 c-20 21 -22 31 -16 72 4 27 4 50 0 53 -8 5 -13
50 -11 112 1 26 6 38 19 41 46 13 47 9 45 -128z m1167 -72 c14 -2 45 0 70 6
24 5 45 9 47 8 1 -1 -3 -24 -9 -50 -7 -34 -14 -47 -27 -47 -41 0 -60 -28 -67
-100 -4 -39 -11 -73 -16 -76 -5 -3 -4 -12 2 -20 9 -10 7 -20 -9 -43 -27 -38
-26 -43 4 -35 20 5 24 3 19 -9 -3 -10 -17 -15 -35 -15 -26 1 -31 6 -44 52 -20
65 -31 168 -16 145 7 -11 19 -15 38 -11 38 7 44 20 26 55 -12 24 -20 28 -44
25 -29 -5 -29 -4 -29 48 0 58 20 90 49 78 9 -4 27 -9 41 -11z m1276 -232 c4
-14 11 -32 16 -38 6 -8 7 -46 3 -95 -6 -73 -10 -86 -33 -105 -26 -22 -26 -23
-9 -52 23 -40 22 -55 -5 -48 -12 4 -28 1 -35 -4 -6 -6 -17 -8 -23 -4 -13 8
-13 72 1 80 6 4 7 14 4 24 -11 28 -15 180 -5 186 6 3 10 17 10 31 0 30 34 66
55 58 8 -4 18 -18 21 -33z m-377 -31 c5 0 6 -11 3 -25 -5 -30 12 -33 40 -8 18
16 19 16 25 -5 8 -32 30 -27 38 8 10 44 25 37 26 -12 3 -94 1 -168 -5 -202 -4
-22 -2 -51 5 -71 14 -38 13 -40 -16 -49 -15 -4 -23 0 -30 16 -6 12 -17 23 -25
25 -11 3 -11 1 3 -10 37 -30 19 -43 -42 -31 -38 8 -45 44 -8 44 19 0 22 5 22
37 0 30 3 37 17 35 22 -4 31 31 19 78 -5 19 -9 27 -10 18 -1 -20 -27 -25 -33
-6 -3 8 -12 4 -26 -10 -16 -16 -20 -29 -15 -56 5 -34 4 -36 -21 -36 -21 0 -26
5 -26 24 0 14 -5 28 -11 32 -7 4 -9 35 -5 92 7 89 25 128 54 117 7 -3 17 -5
21 -5z m-1493 -543 c-10 -7 -39 -29 -64 -49 -26 -21 -50 -38 -53 -38 -4 0 -16
-16 -28 -35 -23 -40 -37 -44 -46 -15 -9 28 -21 25 -37 -10 -7 -16 -17 -30 -21
-30 -5 0 -5 -4 -2 -10 3 -5 -6 -12 -20 -16 -39 -10 -30 -21 25 -29 59 -8 63
-19 15 -36 -19 -7 -37 -21 -41 -31 -3 -10 -13 -18 -22 -18 -15 1 -16 2 -1 13
27 20 24 32 -7 37 -27 5 -29 8 -27 45 1 36 8 109 12 127 1 8 209 95 241 101
14 2 41 5 60 5 31 1 33 -1 16 -11z m-296 -828 c0 -24 -6 -32 -28 -40 -63 -22
-97 -44 -97 -64 0 -28 -50 -48 -102 -40 -48 7 -54 13 -46 43 3 14 21 27 51 39
25 9 58 27 73 40 30 26 92 51 127 52 18 1 22 -4 22 -30z m377 -226 c21 -9 48
-26 61 -37 12 -11 22 -15 22 -10 1 5 7 -4 14 -21 16 -37 10 -65 -15 -65 -10 0
-22 -6 -26 -13 -4 -7 -35 -19 -68 -27 -33 -7 -71 -19 -85 -25 -29 -15 -70 -3
-70 19 0 8 -7 19 -16 24 -13 7 -14 15 -6 45 6 20 8 45 6 55 -3 10 4 30 16 45
19 23 29 27 75 27 30 0 71 -8 92 -17z"/>
</g>
</svg>
